<?xml version="1.0" encoding="UTF-8"?>
<!DOCTYPE svg PUBLIC "-//W3C//DTD SVG 1.1//EN" "http://www.w3.org/Graphics/SVG/1.1/DTD/svg11.dtd">
<!-- Creator: CorelDRAW X8 -->
<svg xmlns="http://www.w3.org/2000/svg" xml:space="preserve" width="3.14999in" height="3.6in" version="1.1" style="shape-rendering:geometricPrecision; text-rendering:geometricPrecision; image-rendering:optimizeQuality; fill-rule:evenodd; clip-rule:evenodd"
viewBox="0 0 3185 3640"
 xmlns:xlink="http://www.w3.org/1999/xlink">
 <defs>
  <style type="text/css">
   <![CDATA[
    .fil0 {fill:black}
   ]]>
  </style>
 </defs>
 <g id="Layer_x0020_1" transform="scale(0.005)">
  <metadata id="CorelCorpID_0Corel-Layer"/>
  <path id="trash-alt.svg" class="fil0" d="M1365 1336l0 1536c0,47 -38,85 -85,85l-171 0c-47,0 -85,-38 -85,-85l0 -1536c0,-47 38,-85 85,-85l171 0c47,0 85,38 85,85l0 0zm711 -85l-171 0c-47,0 -85,38 -85,85l0 1536c0,47 38,85 85,85l171 0c47,0 85,-38 85,-85l0 -1536c0,-47 -38,-85 -85,-85l0 0zm938 -682c94,0 171,76 171,170l0 86c0,47 -38,85 -86,85l-142 0 0 2389c0,188 -152,341 -341,341l-2047 0c-189,0 -342,-153 -342,-341l0 -2389 -142 0c-47,0 -85,-38 -85,-85l0 -86c0,-94 76,-170 171,-170l529 0 241 -403c62,-103 173,-166 293,-166 0,0 0,0 0,0l717 0c0,0 0,0 0,0 120,0 231,63 292,166l242 403 529 0zm-398 341l-2047 0 0 2346c0,23 19,43 42,43l1962 0c24,0 43,-20 43,-43l0 -2346z"/>
 </g>
</svg>
