<?xml version="1.0" encoding="UTF-8"?>
<!DOCTYPE svg PUBLIC "-//W3C//DTD SVG 1.1//EN" "http://www.w3.org/Graphics/SVG/1.1/DTD/svg11.dtd">
<!-- Creator: CorelDRAW X8 -->
<svg xmlns="http://www.w3.org/2000/svg" xml:space="preserve" width="0.017in" height="0.017in" version="1.1" style="shape-rendering:geometricPrecision; text-rendering:geometricPrecision; image-rendering:optimizeQuality; fill-rule:evenodd; clip-rule:evenodd"
viewBox="0 0 17 17"
 xmlns:xlink="http://www.w3.org/1999/xlink">
 <defs>
  <style type="text/css">
   <![CDATA[
    .fil0 {fill:black}
   ]]>
  </style>
 </defs>
 <g id="Layer_x0020_1">
  <metadata id="CorelCorpID_0Corel-Layer"/>
  <path class="fil0" d="M16 7l-6 0 0 -6c0,0 0,-1 -1,-1l-1 0c-1,0 -1,1 -1,1l0 6 -6 0c0,0 -1,0 -1,1l0 1c0,1 1,1 1,1l6 0 0 6c0,0 0,1 1,1l1 0c1,0 1,-1 1,-1l0 -6 6 0c0,0 1,0 1,-1l0 -1c0,-1 -1,-1 -1,-1z"/>
 </g>
</svg>
