<?xml version="1.0" encoding="UTF-8"?>
<!DOCTYPE svg PUBLIC "-//W3C//DTD SVG 1.1//EN" "http://www.w3.org/Graphics/SVG/1.1/DTD/svg11.dtd">
<!-- Creator: CorelDRAW X8 -->
<svg xmlns="http://www.w3.org/2000/svg" xml:space="preserve" width="0.972902in" height="0.778323in" version="1.1" style="shape-rendering:geometricPrecision; text-rendering:geometricPrecision; image-rendering:optimizeQuality; fill-rule:evenodd; clip-rule:evenodd"
viewBox="0 0 311 249"
 xmlns:xlink="http://www.w3.org/1999/xlink">
 <defs>
  <style type="text/css">
   <![CDATA[
    .fil0 {fill:black}
   ]]>
  </style>
 </defs>
 <g id="Layer_x0020_1">
  <metadata id="CorelCorpID_0Corel-Layer"/>
  <path class="fil0" d="M139 5l-57 57 -66 0c-9,0 -16,7 -16,16l0 93c0,9 7,16 16,16l66 0 57 57c10,10 27,3 27,-11l0 -217c0,-14 -17,-21 -27,-11zm172 119c0,-41 -21,-79 -55,-101 -8,-4 -17,-2 -22,5 -5,7 -2,17 5,22 26,16 41,44 41,74 0,31 -15,59 -41,75 -7,5 -10,15 -5,22 4,7 14,10 22,5 34,-23 55,-60 55,-102zm-92 -49c-7,-4 -17,-2 -21,6 -4,7 -1,17 6,21 9,4 14,13 14,22 0,10 -5,18 -14,23 -7,4 -10,14 -6,21 4,8 14,10 21,6 19,-10 30,-29 30,-50 0,-20 -11,-39 -30,-49l0 0z"/>
 </g>
</svg>
